<svg xmlns="http://www.w3.org/2000/svg" viewBox="0 0 50 50"><defs><style>.cls-1{fill:#1a1a1a;}.cls-2{fill:#efefef;}</style></defs><g id="レイヤー_2" data-name="レイヤー 2"><g id="レイヤー_1-2" data-name="レイヤー 1"><circle class="cls-1" cx="25" cy="25" r="25"/><g id="レイヤー_2-2" data-name="レイヤー 2"><g id="レイヤー_1-2-2" data-name="レイヤー 1-2"><path class="cls-2" d="M12.56,31.82l-2.32-2.33a.82.82,0,0,1,0-1.16L24.39,14.18a.82.82,0,0,1,1.16,0L39.76,28.39a.82.82,0,0,1,0,1.16l-2.21,2.21a.81.81,0,0,1-1.15,0h0L25.66,21a.81.81,0,0,0-1.15,0l-10.8,10.8a.81.81,0,0,1-1.15,0Z"/></g></g></g></g></svg>